# xmcd CD database file
#
# Track frame offsets:
#	150
#	12278
#	30313
#	45519
#	67772
#	86720
#	100408
#	105643
#	127546
#	139947
#	161291
#	172107
#	186505
#
# Disc length: 2695 seconds
#
# Revision: 0
# Processed by: cddbd v1.5.1PL0 Copyright (c) Steve Scherf et al.
# Submitted via: CDex 1.50
#
DISCID=9e0a850d
DTITLE=Cheryl Nickerson and The Los Angeles Nicherson Sisters - East and West
DYEAR=1999
DGENRE=Blues
TTITLE0=Today
TTITLE1=All my trials
TTITLE2=Summertime
TTITLE3=East and West
TTITLE4=Swing low, sweet Chariot
TTITLE5=When the saints go marchin'in
TTITLE6=Amazing Grace
TTITLE7=Miracles
TTITLE8=Troubles of the world
TTITLE9=A motherless child
TTITLE10=Dry bones
TTITLE11=Every time I feel, tehe spirit
TTITLE12=Down by the riverside
EXTD=YEAR: 1999
EXTT0=
EXTT1=
EXTT2=
EXTT3=
EXTT4=
EXTT5=
EXTT6=
EXTT7=
EXTT8=
EXTT9=
EXTT10=
EXTT11=
EXTT12=
PLAYORDER=
